<svg xmlns="http://www.w3.org/2000/svg" xmlns:xlink="http://www.w3.org/1999/xlink" width="140" height="106" viewBox="0 0 140 106"><defs><path id="f8hoa" d="M305 3524v-1h125v1z"/><path id="f8hob" d="M368 3529h2v35h-2z"/><path id="f8hoc" d="M306 3515a8 8 0 1 1 0 16 8 8 0 0 1 0-16z"/><path id="f8hod" d="M369 3515a8 8 0 1 1 0 16 8 8 0 0 1 0-16z"/><path id="f8hoe" d="M430 3515a8 8 0 1 1 0 16 8 8 0 0 1 0-16z"/><path id="f8hof" d="M401 3567.7v38.38c0 2.07-1.7 3.75-3.77 3.75h-21.06v5.26a4.94 4.94 0 0 1 4.86 4.92 1 1 0 0 1-1 .99h-24.06a1 1 0 0 1-1-1 4.94 4.94 0 0 1 4.86-4.91v-5.26h-10.6a1 1 0 0 1 0-1.98h48c.98 0 1.78-.8 1.78-1.77v-8.15h-62.02v8.15c0 .97.8 1.77 1.78 1.77h5.95a1 1 0 1 1 0 1.98h-5.95a3.77 3.77 0 0 1-3.77-3.75v-38.33c0-2.07 1.7-3.75 3.77-3.75h58.51a3.71 3.71 0 0 1 3.72 3.7zm-39.18 42.13v5.26h12.36v-5.26zm14.26 7.24h-16.16c-1.28 0-2.37.81-2.78 1.95h21.72a2.96 2.96 0 0 0-2.78-1.95zm22.93-21.13v-13.96h-14.5v13.96zm0-15.94v-12.24c0-.95-.78-1.72-1.73-1.72h-12.76v1.8a1 1 0 0 1-2 0v-1.86h-43.75c-.98 0-1.78.8-1.78 1.77v28.2h45.53v-24.07a1 1 0 0 1 1-.99 1 1 0 0 1 1 1v8.11zm-27.46 22.89a3 3 0 0 1-6.03 0 3 3 0 0 1 6.03 0zm-2 0a1.02 1.02 0 0 0-2.03 0 1.02 1.02 0 0 0 2.03 0zm21.3-32a1 1 0 0 1-1 1h-2.75a1 1 0 1 1 0-1.99h2.75a1 1 0 0 1 1 1zm6.36 0a1 1 0 0 1-1 1h-2.74a1 1 0 1 1 0-1.99h2.75a1 1 0 0 1 1 1zm-6.37 4.26a1 1 0 0 1-1 1h-2.74a1 1 0 1 1 0-2h2.75a1 1 0 0 1 1 1zm6.08 11.48a1 1 0 0 1-1 .99h-8.82a1 1 0 1 1 0-1.98h8.82a1 1 0 0 1 1 .99zm0 4.67a1 1 0 0 1-1 1h-8.82a1 1 0 0 1 0-1.98h8.82a1 1 0 0 1 1 .98zm.3-16.15a1 1 0 0 1-1 1h-2.75a1 1 0 1 1 0-2h2.75a1 1 0 0 1 1 1zm-57.28-7.84a1 1 0 0 1 0 1.98 1 1 0 1 1 0-1.98zm3.87 0a1 1 0 0 1 0 1.98 1 1 0 1 1 0-1.98zm3.7 0a1 1 0 0 1 0 1.98 1 1 0 1 1 0-1.98zm26.74 10.5c0 2.8-1.25 5.43-3.43 7.2a1 1 0 0 1-1.27-1.53 7.29 7.29 0 0 0 2.7-5.67 7.35 7.35 0 0 0-14.7-.35h3.64v-.34c0-.85.69-1.54 1.54-1.54h2.68c.85 0 1.55.7 1.55 1.54v2.66c0 .85-.7 1.54-1.55 1.54h-.34v3.81a7.5 7.5 0 0 0 1.4-.16 1 1 0 1 1 .42 1.94c-.6.13-1.2.2-1.82.2v.63h.34c.85 0 1.55.69 1.55 1.54v2.66c0 .85-.7 1.54-1.55 1.54h-2.68c-.85 0-1.54-.69-1.54-1.54v-.34h-6.68v.34c0 .85-.7 1.54-1.55 1.54h-2.67c-.85 0-1.55-.69-1.55-1.54v-2.66c0-.85.7-1.54 1.55-1.54h.57v-6.42h-.57c-.85 0-1.55-.69-1.55-1.54v-2.66c0-.85.7-1.54 1.55-1.54h2.67c.86 0 1.55.7 1.55 1.54v.34h1.04a9.34 9.34 0 0 1 9.35-8.96 9.34 9.34 0 0 1 9.35 9.31zm-21.73 11.91h-1.79v1.78h1.79zm0-12.16h-1.79v1.78h1.79zm10.66 1.78h1.78v-1.78h-1.78zm0 12.16h1.78v-1.78h-1.78zm-8.67-12.06v.34c0 .85-.7 1.54-1.55 1.54h-.1v6.42h.1c.86 0 1.55.69 1.55 1.54v.34h6.68v-.34c0-.85.69-1.54 1.54-1.54h.34v-6.42h-.34c-.85 0-1.54-.69-1.54-1.54v-.34z"/><clipPath id="f8hog"><use fill="#fff" xlink:href="#f8hoa"/></clipPath><clipPath id="f8hoh"><use fill="#fff" xlink:href="#f8hob"/></clipPath><clipPath id="f8hoi"><use fill="#fff" xlink:href="#f8hoc"/></clipPath><clipPath id="f8hoj"><use fill="#fff" xlink:href="#f8hod"/></clipPath><clipPath id="f8hok"><use fill="#fff" xlink:href="#f8hoe"/></clipPath></defs><g><g transform="translate(-298 -3515)"><use fill="#2968b7" xlink:href="#f8hof"/></g><g transform="translate(-298 -3515)"><use fill="#fff" fill-opacity="0" stroke="#2968b7" stroke-dasharray="4 4" stroke-miterlimit="50" stroke-width="2" clip-path="url(&quot;#f8hog&quot;)" xlink:href="#f8hoa"/></g><g transform="translate(-298 -3515)"><use fill="#fff" fill-opacity="0" stroke="#2968b7" stroke-dasharray="4 4" stroke-miterlimit="50" stroke-width="4" clip-path="url(&quot;#f8hoh&quot;)" xlink:href="#f8hob"/></g><g transform="translate(-298 -3515)"><use fill="#fdfdfd" xlink:href="#f8hoc"/><use fill="#fff" fill-opacity="0" stroke="#2968b7" stroke-miterlimit="50" stroke-width="4" clip-path="url(&quot;#f8hoi&quot;)" xlink:href="#f8hoc"/></g><g transform="translate(-298 -3515)"><use fill="#fdfdfd" xlink:href="#f8hod"/><use fill="#fff" fill-opacity="0" stroke="#2968b7" stroke-miterlimit="50" stroke-width="4" clip-path="url(&quot;#f8hoj&quot;)" xlink:href="#f8hod"/></g><g transform="translate(-298 -3515)"><use fill="#fdfdfd" xlink:href="#f8hoe"/><use fill="#fff" fill-opacity="0" stroke="#2968b7" stroke-miterlimit="50" stroke-width="4" clip-path="url(&quot;#f8hok&quot;)" xlink:href="#f8hoe"/></g></g></svg>