<svg xmlns="http://www.w3.org/2000/svg" xmlns:xlink="http://www.w3.org/1999/xlink" width="69" height="79" viewBox="0 0 69 79"><defs><path id="pt65a" d="M779 3576.27v2.23h-67V3545h2.23v31.27zm-2.02-39.19l-16.8 18.05-13.25-3.32-13.36 12.25-13.94-2.33.37-2.2 12.86 2.15 13.45-12.33 13.54 3.39 16-17.59zm-35.71 60.17v1.12a15.63 15.63 0 1 1-15.64-15.64h1.12v14.52zm-2.28 2.23h-14.47v-14.47a13.4 13.4 0 1 0 14.47 14.47zm6.74-12.28v2.23h-11.52l-1.96 4.88-2.07-.83 2.51-6.28zm-22.56-22.1v8.93h-6.7v-8.93zm-2.24 2.23h-2.23v4.47h2.23zm15.64 0v6.7h-6.7v-6.7zm-2.24 2.24h-2.23v2.23h2.23zm29.04-11.17v15.63h-6.7v-15.63zm-2.24 2.23h-2.23v11.17h2.23zm-11.16-4.46v17.86h-6.7v-17.86zm-2.24 2.23h-2.23v13.4h2.23zm29.04-9.7v25.33h-6.7v-25.33zm-2.24 2.23h-2.23v20.87h2.23zm-39.96 31.8h2.23v2.24h-2.23zm4.46 0h2.24v2.24h-2.24zm4.47 0h2.23v2.24h-2.23zm35.5 3.35v24.57c0 1.85-1.5 3.35-3.35 3.35h-22.33a3.35 3.35 0 0 1-3.35-3.35v-24.57c0-1.85 1.5-3.35 3.35-3.35h22.33c1.85 0 3.35 1.5 3.35 3.35zm-2.23 0c0-.61-.5-1.11-1.12-1.11h-22.33c-.62 0-1.12.5-1.12 1.11v24.57c0 .62.5 1.12 1.12 1.12h22.33c.62 0 1.12-.5 1.12-1.12zm-22.34 3.35h20.1v2.24h-20.1zm0 4.47h20.1v2.23h-20.1zm0 4.47h20.1v2.23h-20.1zm0 4.46h20.1v2.24h-20.1zm13.4 4.47h2.24v2.23h-2.24zm4.47 0h2.23v2.23h-2.23zm-8.93 0h2.23v2.23h-2.23z"/></defs><g><g transform="translate(-710 -3535)"><use fill="#2968b7" xlink:href="#pt65a"/></g></g></svg>