<svg xmlns="http://www.w3.org/2000/svg" xmlns:xlink="http://www.w3.org/1999/xlink" width="66" height="65" viewBox="0 0 66 65"><defs><path id="qss0a" d="M324 4360a25 25 0 1 1 0 50 25 25 0 0 1 0-50z"/><path id="qss0b" d="M323.5 4352a32.5 32.5 0 1 1 0 65 32.5 32.5 0 0 1 0-65z"/><path id="qss0c" d="M323.69 4366.1a17.6 17.6 0 1 1 0 35.18 17.6 17.6 0 0 1 0-35.19z"/><path id="qss0f" d="M334 4393h-1.56a8.45 8.45 0 0 0-16.88 0H314a9.94 9.94 0 0 1 6.73-9.46 5.78 5.78 0 1 1 6.54 0A9.97 9.97 0 0 1 334 4393zm-5.78-14.22a4.22 4.22 0 1 0-8.45.01 4.22 4.22 0 0 0 8.45-.01z"/><clipPath id="qss0d"><use fill="#fff" xlink:href="#qss0a"/></clipPath><clipPath id="qss0e"><use fill="#fff" xlink:href="#qss0b"/></clipPath></defs><g><g transform="translate(-290 -4352)"><use fill="#2968b7" xlink:href="#qss0c"/></g><g opacity=".3" transform="translate(-290 -4352)"><use fill="#fff" fill-opacity="0" stroke="#2968b7" stroke-miterlimit="50" stroke-width="2" clip-path="url(&quot;#qss0d&quot;)" xlink:href="#qss0a"/></g><g opacity=".2" transform="translate(-290 -4352)"><use fill="#fff" fill-opacity="0" stroke="#2968b7" stroke-miterlimit="50" stroke-width="2" clip-path="url(&quot;#qss0e&quot;)" xlink:href="#qss0b"/></g><g transform="translate(-290 -4352)"><use fill="#fff" xlink:href="#qss0f"/></g></g></svg>