<svg xmlns="http://www.w3.org/2000/svg" xmlns:xlink="http://www.w3.org/1999/xlink" width="17" height="24" viewBox="0 0 17 24"><defs><path id="nlmqa" d="M417 1238.7c0 5.94-7.6 14.67-7.93 15.04a.75.75 0 0 1-1.14 0c-.32-.37-7.93-9.1-7.93-15.05a8.6 8.6 0 0 1 8.5-8.69 8.6 8.6 0 0 1 8.5 8.7zm-4.22 0a4.33 4.33 0 0 0-4.28-4.38 4.33 4.33 0 0 0-4.28 4.37 4.33 4.33 0 0 0 4.28 4.37 4.33 4.33 0 0 0 4.28-4.37z"/></defs><g><g transform="translate(-400 -1230)"><use fill="#2968b7" xlink:href="#nlmqa"/></g></g></svg>