<svg xmlns="http://www.w3.org/2000/svg" xmlns:xlink="http://www.w3.org/1999/xlink" width="115" height="119" viewBox="0 0 115 119"><defs><path id="lq02a" d="M1133.46 3547.44c.2-.58.82-.9 1.4-.7a35.14 35.14 0 0 1 18.57 14.39 1.1 1.1 0 0 1-1.86 1.2 32.93 32.93 0 0 0-17.4-13.5 1.1 1.1 0 0 1-.7-1.39zm-39 13.69c4.41-6.86 11.1-12 18.82-14.47a1.1 1.1 0 1 1 .68 2.1 32.9 32.9 0 0 0-17.63 13.56 1.1 1.1 0 1 1-1.86-1.2z"/><path id="lq02b" d="M1135 3536.88v3.99c0 .62-.5 1.13-1.12 1.13h-15.33a1.12 1.12 0 1 1 0-2.24h14.2v-2.88a4.14 4.14 0 0 0-2.58-4.06l-4.2-1.68-2.11 2.19c-.2.21-.5.33-.8.34h-.01c-.3 0-.57-.12-.78-.32l-2.24-2.17-4.2 1.64-.06.02c-.1.03-2.52.93-2.52 4.04v2.88h1.73a1.12 1.12 0 1 1 0 2.24h-2.86c-.62 0-1.12-.5-1.12-1.12v-4c0-4.57 3.6-6 4.02-6.15l4.6-1.8v-.62a5.84 5.84 0 0 1-2.6-3.21 3.16 3.16 0 0 1-1.77-5.6v-1.98a7.54 7.54 0 0 1 7.53-7.52h.54a7.54 7.54 0 0 1 7.53 7.52v1.98a3.15 3.15 0 0 1-1.75 5.6 5.84 5.84 0 0 1-2.6 3.21v.63l4.48 1.79c.45.16 4.02 1.6 4.02 6.15zm-5.61-15.59v1.4a.91.91 0 0 0 .12-1.37l-.12-.03zm-12.66.01l-.18.05a.91.91 0 0 0 .18 1.36zm7.72-5.94a1.12 1.12 0 0 1 2 .4c0 .02.51 2.1 2.07 2.45h.03l.05.02v-.7a5.29 5.29 0 0 0-5.28-5.29h-.54a5.29 5.29 0 0 0-5.28 5.28v.72h.02l.06-.02.05-.02h.08l.03-.01.12-.01c.06 0 4.56-.03 6.59-2.82zm-.19 13.7c-.22.03-.45.05-.69.05h-1.02c-.23 0-.46-.02-.69-.04v.76l1.16 1.13 1.24-1.29zm2.88-5.76v-3.2a5.03 5.03 0 0 1-2.15-2.07c-1.98 1.66-4.55 2.17-6 2.32v2.95c0 1.96 1.6 3.56 3.56 3.56h1.02c1.97 0 3.57-1.6 3.57-3.56z"/><path id="lq02c" d="M1183 3581.88v3.99c0 .62-.5 1.13-1.12 1.13h-15.33a1.12 1.12 0 1 1 0-2.24h14.2v-2.88a4.14 4.14 0 0 0-2.58-4.06l-4.2-1.68-2.11 2.19c-.2.21-.5.33-.8.34h-.01c-.3 0-.57-.12-.78-.32l-2.24-2.17-4.2 1.64a4.14 4.14 0 0 0-2.58 4.06v2.88h1.73a1.12 1.12 0 1 1 0 2.24h-2.86c-.62 0-1.12-.5-1.12-1.12v-4c0-4.57 3.6-6 4.02-6.15l4.6-1.8v-.62a5.84 5.84 0 0 1-2.6-3.21 3.16 3.16 0 0 1-1.77-5.6v-1.98a7.54 7.54 0 0 1 7.53-7.52h.54a7.54 7.54 0 0 1 7.53 7.52v1.98a3.16 3.16 0 0 1-1.75 5.6 5.84 5.84 0 0 1-2.6 3.21v.63l4.48 1.79c.45.16 4.02 1.6 4.02 6.15zm-5.61-15.59v1.4a.92.92 0 0 0 .12-1.37l-.12-.03zm-12.66.01l-.18.05a.91.91 0 0 0 .18 1.36zm7.72-5.94a1.12 1.12 0 0 1 2 .4c0 .02.51 2.1 2.07 2.45h.03l.05.02v-.7a5.29 5.29 0 0 0-5.28-5.29h-.54a5.29 5.29 0 0 0-5.28 5.28v.72h.02l.06-.02.05-.02h.08l.03-.01h.12c.06 0 4.56-.04 6.59-2.83zm-.19 13.7c-.22.03-.45.05-.69.05h-1.02c-.23 0-.46-.02-.69-.04v.76l1.16 1.13 1.24-1.29zm2.88-5.76v-3.2a5.03 5.03 0 0 1-2.15-2.07c-1.98 1.66-4.55 2.17-6 2.32v2.95c0 1.96 1.6 3.56 3.56 3.56h1.02c1.97 0 3.57-1.6 3.57-3.56z"/><path id="lq02d" d="M1092 3581.88v3.99c0 .62-.5 1.13-1.12 1.13h-15.33a1.12 1.12 0 1 1 0-2.24h14.2v-2.88a4.14 4.14 0 0 0-2.58-4.06l-4.2-1.68-2.11 2.19c-.2.21-.5.33-.8.34h-.01c-.3 0-.57-.12-.78-.32l-2.24-2.17-4.2 1.64a4.14 4.14 0 0 0-2.58 4.06v2.88h1.73a1.12 1.12 0 1 1 0 2.24h-2.86c-.62 0-1.12-.5-1.12-1.12v-4c0-4.57 3.6-6 4.02-6.15l4.6-1.8v-.62a5.84 5.84 0 0 1-2.6-3.21 3.16 3.16 0 0 1-1.77-5.6v-1.98a7.54 7.54 0 0 1 7.53-7.52h.54a7.54 7.54 0 0 1 7.53 7.52v1.98a3.16 3.16 0 0 1-1.75 5.6 5.84 5.84 0 0 1-2.6 3.21v.63l4.48 1.79c.45.16 4.02 1.6 4.02 6.15zm-5.61-15.59v1.4a.92.92 0 0 0 .12-1.37l-.12-.03zm-12.66.01l-.18.05a.91.91 0 0 0 .18 1.36zm7.72-5.94a1.12 1.12 0 0 1 2 .4c0 .02.51 2.1 2.07 2.45h.03l.05.02v-.7a5.29 5.29 0 0 0-5.28-5.29h-.54a5.29 5.29 0 0 0-5.28 5.28v.72h.02l.06-.02.05-.02h.08l.03-.01h.12c.06 0 4.56-.04 6.59-2.83zm-.19 13.7c-.22.03-.45.05-.69.05h-1.02c-.23 0-.46-.02-.69-.04v.76l1.16 1.13 1.24-1.29zm2.88-5.76v-3.2a5.03 5.03 0 0 1-2.15-2.07c-1.98 1.66-4.55 2.17-6 2.32v2.95c0 1.96 1.6 3.56 3.56 3.56h1.02c1.97 0 3.57-1.6 3.57-3.56z"/><path id="lq02e" d="M1117.2 3589.97a.8.8 0 0 1-1.1.13 13.26 13.26 0 0 1 0-20.93.8.8 0 0 1 1.1.12c.28.34.22.83-.12 1.1a11.7 11.7 0 0 0 0 18.48c.34.27.4.76.13 1.1zm20.8-10.34c0 4.1-1.86 7.91-5.1 10.46a.8.8 0 0 1-1.1-.12.78.78 0 0 1 .12-1.1 11.7 11.7 0 0 0 0-18.48.78.78 0 0 1-.13-1.1.8.8 0 0 1 1.11-.12 13.26 13.26 0 0 1 5.1 10.46zm-18.15 7.07a.8.8 0 0 1-1.12.13 9.11 9.11 0 0 1 0-14.4.8.8 0 0 1 1.12.13c.27.34.21.83-.13 1.1a7.56 7.56 0 0 0 0 11.94c.34.27.4.77.13 1.1zm13.93-7.07a9.11 9.11 0 0 1-3.51 7.2.8.8 0 0 1-1.12-.13.78.78 0 0 1 .13-1.1 7.56 7.56 0 0 0 0-11.94.78.78 0 0 1-.13-1.1.8.8 0 0 1 1.12-.12 9.12 9.12 0 0 1 3.51 7.2zm-5.32.01a3.93 3.93 0 0 1-3.17 3.84v8.74c0 .43-.35.78-.79.78a.79.79 0 0 1-.8-.78v-8.74a3.93 3.93 0 0 1-3.16-3.84 3.94 3.94 0 0 1 3.96-3.91 3.94 3.94 0 0 1 3.96 3.91zm-1.59 0c0-1.3-1.06-2.35-2.37-2.35a2.36 2.36 0 0 0-2.37 2.35c0 1.3 1.06 2.35 2.37 2.35 1.3 0 2.37-1.05 2.37-2.35z"/><path id="lq02f" d="M1148 3623.05v1.64c0 2.38-1.97 4.31-4.38 4.31h-38.24a4.35 4.35 0 0 1-4.38-4.3v-1.65c0-.5.41-.9.92-.9h1.1v-21.87a4.33 4.33 0 0 1 4.36-4.28h13.08c.5 0 .92.4.92.9s-.41.9-.92.9h-13.08a2.5 2.5 0 0 0-2.52 2.48v21.87h39.28v-21.87a2.5 2.5 0 0 0-2.52-2.48h-11.98c-.5 0-.92-.4-.92-.9s.41-.9.92-.9h11.98c2.4 0 4.36 1.92 4.36 4.28v21.87h1.1c.5 0 .92.4.92.9zm-1.84.9h-43.32v.74c0 1.38 1.14 2.5 2.54 2.5h38.24c1.4 0 2.54-1.12 2.54-2.5zm-18.7 1.62c0 .5-.4.9-.91.9h-4.05c-.51 0-.92-.4-.92-.9s.4-.9.92-.9h4.05c.5 0 .92.4.92.9zm-1.58-28.67a.9.9 0 0 1-.27.64.93.93 0 0 1-1.3 0 .9.9 0 0 1 0-1.28.93.93 0 0 1 1.3 0c.17.17.27.4.27.64z"/></defs><g><g transform="translate(-1068 -3510)"><use fill="#2968b7" xlink:href="#lq02a"/></g><g transform="translate(-1068 -3510)"><use fill="#2968b7" xlink:href="#lq02b"/></g><g transform="translate(-1068 -3510)"><use fill="#2968b7" xlink:href="#lq02c"/></g><g transform="translate(-1068 -3510)"><use fill="#2968b7" xlink:href="#lq02d"/></g><g transform="translate(-1068 -3510)"><use fill="#2968b7" xlink:href="#lq02e"/></g><g transform="translate(-1068 -3510)"><use fill="#2968b7" xlink:href="#lq02f"/></g></g></svg>