<svg xmlns="http://www.w3.org/2000/svg" xmlns:xlink="http://www.w3.org/1999/xlink" width="53" height="72" viewBox="0 0 53 72"><defs><path id="ptzla" d="M736 820.5a14.5 14.5 0 1 1 29 0v17a14.5 14.5 0 1 1-29 0z"/><path id="ptzle" d="M750.5 840l-5.5-4.87 1.28-1.13 4.22 3.73 4.22-3.73 1.28 1.13zm0-7l-5.5-4.87 1.28-1.13 4.22 3.73 4.22-3.73 1.28 1.13zm0-7l-5.5-4.87 1.28-1.13 4.22 3.73 4.22-3.73 1.28 1.13z"/><mask id="ptzlc" width="2" height="2" x="-1" y="-1"><path fill="#fff" d="M736 806h29v46h-29z"/><use xlink:href="#ptzla"/></mask><filter id="ptzlb" width="79" height="111" x="711" y="781" filterUnits="userSpaceOnUse"><feOffset dy="15" in="SourceGraphic" result="FeOffset1023Out"/><feGaussianBlur in="FeOffset1023Out" result="FeGaussianBlur1024Out" stdDeviation="6 6"/></filter><clipPath id="ptzld"><use fill="#fff" xlink:href="#ptzla"/></clipPath></defs><g><g transform="translate(-724 -806)"><g filter="url(#ptzlb)"><use fill="none" stroke-opacity=".15" stroke-width="0" mask="url(&quot;#ptzlc&quot;)" xlink:href="#ptzla"/><use fill="#004467" fill-opacity=".15" xlink:href="#ptzla"/></g><use fill="#fff" xlink:href="#ptzla"/><use fill="#fff" fill-opacity="0" stroke="#fff" stroke-miterlimit="50" stroke-width="2" clip-path="url(&quot;#ptzld&quot;)" xlink:href="#ptzla"/></g><g transform="translate(-724 -806)"><use fill="#3277ce" xlink:href="#ptzle"/></g></g></svg>