<svg xmlns="http://www.w3.org/2000/svg" xmlns:xlink="http://www.w3.org/1999/xlink" width="32" height="32" viewBox="0 0 32 32"><defs><path id="xt30a" d="M694 445a12 12 0 0 1 10.6 17.6l8.35 8.35a3.52 3.52 0 0 1-2.48 6.05c-.98 0-1.87-.4-2.51-1.06l-8.34-8.34A12 12 0 1 1 694 445zm15.2 29.7a1.76 1.76 0 1 0 2.49-2.49l.01-.01-8.06-8.07c-.7.95-1.55 1.8-2.5 2.5zM694 467a10 10 0 1 0 0-20 10 10 0 0 0 0 20zm0-17a7 7 0 0 1 7 7 .5.5 0 0 1-1 0 6 6 0 0 0-6-6 .5.5 0 0 1 0-1z"/></defs><g><g transform="translate(-682 -445)"><use fill="#2968b7" xlink:href="#xt30a"/></g></g></svg>