<svg xmlns="http://www.w3.org/2000/svg" xmlns:xlink="http://www.w3.org/1999/xlink" width="20" height="20" viewBox="0 0 20 20"><defs><path id="2qaoa" d="M1097.07 846.07a10.02 10.02 0 0 1-14.14-14.14 10.02 10.02 0 0 1 14.14 14.14zm-3.12-4.21l-2.86-2.86 2.72-2.72a.77.77 0 0 0-1.09-1.09l-2.72 2.72-2.86-2.85a.77.77 0 0 0-1.08 1.08l2.85 2.86-3 3a.77.77 0 1 0 1.1 1.08l2.99-3 2.86 2.87a.77.77 0 1 0 1.09-1.1z"/></defs><g><g transform="translate(-1080 -829)"><use fill="#fff" xlink:href="#2qaoa"/></g></g></svg>