<svg xmlns="http://www.w3.org/2000/svg" xmlns:xlink="http://www.w3.org/1999/xlink" width="539" height="347" viewBox="0 0 539 347"><defs><path id="rsn2a" d="M256 1769a10 10 0 0 1 10-10h457a10 10 0 0 1 10 10v311a10 10 0 0 1-10 10H266a10 10 0 0 1-10-10z"/><path id="rsn2b" d="M283 1825a10 10 0 0 1 10-10h384a10 10 0 0 1 10 10v72a10 10 0 0 1-10 10H293a10 10 0 0 1-10-10z"/><path id="rsn2c" d="M283 2066v-20a10 10 0 0 1 10-10h384a10 10 0 0 1 10 10v20"/><path id="rsn2d" d="M223 1936a10 10 0 0 1 10-10h444a10 10 0 0 1 10 10v72a10 10 0 0 1-10 10H233a10 10 0 0 1-10-10z"/><path id="rsn2e" d="M279.5 1945a27.5 27.5 0 1 1 0 55 27.5 27.5 0 0 1 0-55z"/><path id="rsn2h" d="M256 1789v-20a10 10 0 0 1 10-10h457a10 10 0 0 1 10 10v20"/><path id="rsn2i" d="M279.69 1771a3.6 3.6 0 0 1 3.68 3.5 3.6 3.6 0 0 1-3.68 3.5 3.6 3.6 0 0 1-3.69-3.5 3.6 3.6 0 0 1 3.69-3.5z"/><path id="rsn2j" d="M291.5 1771a3.6 3.6 0 0 1 3.69 3.5 3.6 3.6 0 0 1-3.69 3.5 3.6 3.6 0 0 1-3.69-3.5 3.6 3.6 0 0 1 3.69-3.5z"/><path id="rsn2k" d="M303.31 1771a3.6 3.6 0 0 1 3.69 3.5 3.6 3.6 0 0 1-3.69 3.5 3.6 3.6 0 0 1-3.69-3.5 3.6 3.6 0 0 1 3.7-3.5z"/><path id="rsn2q" d="M706 1817h2v246h-2z"/><path id="rsn2r" d="M704 1844.5a3.5 3.5 0 1 1 7 0v30a3.5 3.5 0 1 1-7 0z"/><path id="rsn2s" d="M304 1849a10 10 0 0 1 10-10h32a10 10 0 0 1 10 10v32a10 10 0 0 1-10 10h-32a10 10 0 0 1-10-10z"/><path id="rsn2t" d="M342.1 1879.3l.02.02-.6.5-.18.15-.85.64-.36.26a18.2 18.2 0 0 1-2.5 1.43l-.15.07a17.85 17.85 0 0 1-5.84 1.55l-.19.01a17.92 17.92 0 0 1-2.92 0l-.17-.01a17.63 17.63 0 0 1-5.92-1.6l-.09-.03a17.64 17.64 0 0 1-2.54-1.47l-.32-.23c-.33-.23-.65-.48-.96-.73l-.12-.1-.58-.49.01-.01A17.96 17.96 0 0 1 312 1866c0-9.93 8.08-18 18-18s18 8.07 18 18c0 5.27-2.28 10.01-5.9 13.3zm-23.24-.89c.16-.11.32-.22.49-.31l5.17-2.82c.47-.26.76-.75.76-1.28v-1.9c-.4-.53-1.49-2.1-2.02-4.18a2.38 2.38 0 0 1-.88-1.85v-2.32c0-.57.21-1.12.58-1.55v-3.05a5.28 5.28 0 0 1 1.24-3.84c1.2-1.38 3.15-2.07 5.8-2.07 2.64 0 4.6.7 5.8 2.07a5.28 5.28 0 0 1 1.24 3.84v3.05c.37.44.58.99.58 1.55v2.32c0 .94-.54 1.76-1.37 2.16a13.35 13.35 0 0 1-2.11 3.88v1.94c0 .56.3 1.06.8 1.3l5.54 2.78c.2.1.4.21.59.35a16.65 16.65 0 0 0 5.62-12.48c0-9.2-7.49-16.7-16.69-16.7-9.2 0-16.7 7.5-16.7 16.7 0 4.92 2.15 9.35 5.56 12.41zm21.14.94l-.1-.05-5.54-2.77a2.75 2.75 0 0 1-1.53-2.48v-2.42l.16-.19a12.1 12.1 0 0 0 2.12-3.92l.1-.32.32-.1c.46-.14.78-.56.78-1.03v-2.32c0-.3-.13-.58-.37-.8l-.21-.2v-3.72c0-.02.19-1.62-.92-2.87-.95-1.07-2.57-1.62-4.81-1.62-2.25 0-3.87.55-4.82 1.63-1.1 1.27-.92 2.84-.91 2.86v3.73l-.21.2c-.24.2-.37.49-.37.8v2.31c0 .37.2.71.5.91l.23.15.06.26a10.93 10.93 0 0 0 1.96 4.07l.15.18v2.36c0 1-.55 1.94-1.44 2.43l-5.18 2.82-.06.03.09.07a16.5 16.5 0 0 0 2.14 1.37l.15.07a16.95 16.95 0 0 0 2.34 1 16.52 16.52 0 0 0 2.62.66l.06.02c.4.07.82.12 1.24.15l.21.02a16.63 16.63 0 0 0 2.47 0l.21-.02a17 17 0 0 0 1.23-.15h.04a16.81 16.81 0 0 0 2.54-.62l.08-.04c.78-.26 1.54-.58 2.28-.96l.21-.11a16.37 16.37 0 0 0 1.97-1.24l.21-.15z"/><path id="rsn2u" d="M375 1849.5c0-.83.67-1.5 1.5-1.5h288a1.5 1.5 0 1 1 0 3h-288a1.5 1.5 0 0 1-1.5-1.5z"/><path id="rsn2v" d="M375 1859.5c0-.83.67-1.5 1.5-1.5h288a1.5 1.5 0 1 1 0 3h-288a1.5 1.5 0 0 1-1.5-1.5z"/><path id="rsn2w" d="M375 1869.5c0-.83.67-1.5 1.5-1.5h288a1.5 1.5 0 1 1 0 3h-288a1.5 1.5 0 0 1-1.5-1.5z"/><path id="rsn2x" d="M375 1879.5c0-.83.67-1.5 1.5-1.5h138a1.5 1.5 0 1 1 0 3h-138a1.5 1.5 0 0 1-1.5-1.5z"/><path id="rsn2A" d="M333 1970a1 1 0 0 1 1-1h330a1 1 0 0 1 1 1v1a1 1 0 0 1-1 1H334a1 1 0 0 1-1-1z"/><path id="rsn2B" d="M333 1980a1 1 0 0 1 1-1h330a1 1 0 0 1 1 1v1a1 1 0 0 1-1 1H334a1 1 0 0 1-1-1z"/><path id="rsn2C" d="M333 1990a1 1 0 0 1 1-1h330a1 1 0 0 1 1 1v1a1 1 0 0 1-1 1H334a1 1 0 0 1-1-1z"/><path id="rsn2D" d="M333 1948a1 1 0 0 1 1-1h143a1 1 0 0 1 1 1v1a1 1 0 0 1-1 1H334a1 1 0 0 1-1-1z"/><path id="rsn2E" d="M602.5 1825l1.48 2.83 3.02.6-2.1 2.36.38 3.2-2.78-1.36-2.78 1.37.38-3.2-2.1-2.36 3.02-.61 1.48-2.83"/><path id="rsn2F" d="M615.5 1825l1.48 2.83 3.02.6-2.1 2.36.38 3.2-2.78-1.36-2.78 1.37.38-3.2-2.1-2.36 3.02-.61 1.48-2.83"/><path id="rsn2G" d="M630.5 1825l1.48 2.83 3.02.6-2.1 2.36.38 3.2-2.78-1.36-2.78 1.37.38-3.2-2.1-2.36 3.02-.61 1.48-2.83"/><path id="rsn2H" d="M645.5 1825l1.48 2.83 3.02.6-2.1 2.36.38 3.2-2.78-1.36-2.78 1.37.38-3.2-2.1-2.36 3.02-.61 1.48-2.83"/><path id="rsn2I" d="M661.5 1825l1.48 2.83 3.02.6-2.1 2.36.38 3.2-2.78-1.36-2.78 1.37.38-3.2-2.1-2.36 3.02-.61 1.48-2.83"/><path id="rsn2J" d="M602.5 2048l1.48 2.83 3.02.6-2.1 2.36.38 3.2-2.78-1.36-2.78 1.37.38-3.2-2.1-2.36 3.02-.61 1.48-2.83"/><path id="rsn2K" d="M615.5 2048l1.48 2.83 3.02.6-2.1 2.36.38 3.2-2.78-1.36-2.78 1.37.38-3.2-2.1-2.36 3.02-.61 1.48-2.83"/><path id="rsn2L" d="M630.5 2048l1.48 2.83 3.02.6-2.1 2.36.38 3.2-2.78-1.36-2.78 1.37.38-3.2-2.1-2.36 3.02-.61 1.48-2.83"/><path id="rsn2M" d="M645.5 2048l1.48 2.83 3.02.6-2.1 2.36.38 3.2-2.78-1.36-2.78 1.37.38-3.2-2.1-2.36 3.02-.61 1.48-2.83"/><path id="rsn2N" d="M661.5 2048l1.48 2.83 3.02.6-2.1 2.36.38 3.2-2.78-1.36-2.78 1.37.38-3.2-2.1-2.36 3.02-.61 1.48-2.83"/><path id="rsn2O" d="M598.68 1944l1.88 3.46 3.8.74-2.64 2.88.48 3.92-3.52-1.68-3.5 1.68.47-3.92-2.65-2.88 3.81-.74 1.87-3.46"/><path id="rsn2P" d="M613.84 1944l1.88 3.46 3.8.74-2.65 2.88.48 3.92-3.5-1.68-3.52 1.68.48-3.92-2.65-2.88 3.8-.74 1.88-3.46"/><path id="rsn2Q" d="M629 1944l1.87 3.46 3.81.74-2.65 2.88.48 3.92-3.51-1.68-3.51 1.68.48-3.92-2.65-2.88 3.8-.74L629 1944"/><path id="rsn2R" d="M644.16 1944l1.87 3.46 3.81.74-2.65 2.88.48 3.92-3.51-1.68-3.51 1.68.48-3.92-2.66-2.88 3.81-.74 1.88-3.46"/><path id="rsn2S" d="M659.32 1944l1.87 3.46 3.8.74-2.64 2.88.48 3.92-3.51-1.68-3.52 1.68.48-3.92-2.65-2.88 3.81-.74 1.88-3.46"/><mask id="rsn2g" width="2" height="2" x="-1" y="-1"><path fill="#fff" d="M256 1759h477v331H256z"/><use xlink:href="#rsn2a"/></mask><filter id="rsn2f" width="519" height="378" x="235" y="1738" filterUnits="userSpaceOnUse"><feOffset dy="5" in="SourceGraphic" result="FeOffset1324Out"/><feGaussianBlur in="FeOffset1324Out" result="FeGaussianBlur1325Out" stdDeviation="4.4 4.4"/></filter><clipPath id="rsn2l"><use fill="#fff" xlink:href="#rsn2b"/></clipPath><clipPath id="rsn2m"><use fill="#fff" xlink:href="#rsn2c"/></clipPath><mask id="rsn2o" width="2" height="2" x="-1" y="-1"><path fill="#fff" d="M223 1926h464v92H223z"/><use xlink:href="#rsn2d"/></mask><filter id="rsn2n" width="548" height="181" x="181" y="1884" filterUnits="userSpaceOnUse"><feOffset dy="5" in="SourceGraphic" result="FeOffset1374Out"/><feGaussianBlur in="FeOffset1374Out" result="FeGaussianBlur1375Out" stdDeviation="12.8 12.8"/></filter><clipPath id="rsn2p"><use fill="#fff" xlink:href="#rsn2d"/></clipPath><clipPath id="rsn2y"><use fill="#fff" xlink:href="#rsn2e"/></clipPath><clipPath id="rsn2z"><use xlink:href="#rsn2e"/></clipPath></defs><g><g transform="translate(-202 -1756)"><g filter="url(#rsn2f)"><use fill="none" stroke-opacity=".1" stroke-width="0" mask="url(&quot;#rsn2g&quot;)" xlink:href="#rsn2a"/><use fill-opacity=".1" xlink:href="#rsn2a"/></g><use fill="#fff" xlink:href="#rsn2a"/></g><g opacity=".2" transform="translate(-202 -1756)"><use fill="#b9b9ba" xlink:href="#rsn2h"/></g><g transform="translate(-202 -1756)"><use fill="#c7c6c5" xlink:href="#rsn2i"/></g><g transform="translate(-202 -1756)"><use fill="#c7c6c5" xlink:href="#rsn2j"/></g><g transform="translate(-202 -1756)"><use fill="#c7c6c5" xlink:href="#rsn2k"/></g><g opacity=".23" transform="translate(-202 -1756)"><use fill="#fff" fill-opacity="0" stroke="#000" stroke-miterlimit="50" stroke-width="2" clip-path="url(&quot;#rsn2l&quot;)" xlink:href="#rsn2b"/></g><g opacity=".23" transform="translate(-202 -1756)"><use fill="#fff" fill-opacity="0" stroke="#000" stroke-miterlimit="50" stroke-width="2" clip-path="url(&quot;#rsn2m&quot;)" xlink:href="#rsn2c"/></g><g transform="translate(-202 -1756)"><g filter="url(#rsn2n)"><use fill="none" stroke-opacity=".08" stroke-width="0" mask="url(&quot;#rsn2o&quot;)" xlink:href="#rsn2d"/><use fill-opacity=".08" xlink:href="#rsn2d"/></g><use fill="#fff" xlink:href="#rsn2d"/><use fill="#fff" fill-opacity="0" stroke="#2968b7" stroke-miterlimit="50" stroke-width="4" clip-path="url(&quot;#rsn2p&quot;)" xlink:href="#rsn2d"/></g><g opacity=".21" transform="translate(-202 -1756)"><use fill="#414042" xlink:href="#rsn2q"/></g><g transform="translate(-202 -1756)"><use fill="#dad9da" xlink:href="#rsn2r"/></g><g transform="translate(-202 -1756)"><use fill="#f1f1f1" xlink:href="#rsn2s"/></g><g opacity=".23" transform="translate(-202 -1756)"><use xlink:href="#rsn2t"/></g><g opacity=".1" transform="translate(-202 -1756)"><use xlink:href="#rsn2u"/></g><g opacity=".1" transform="translate(-202 -1756)"><use xlink:href="#rsn2v"/></g><g opacity=".1" transform="translate(-202 -1756)"><use xlink:href="#rsn2w"/></g><g opacity=".1" transform="translate(-202 -1756)"><use xlink:href="#rsn2x"/></g><g transform="translate(-202 -1756)"><use fill="#fff" xlink:href="#rsn2e"/><use fill="#fff" fill-opacity="0" stroke="#acacac" stroke-miterlimit="50" stroke-width="2" clip-path="url(&quot;#rsn2y&quot;)" xlink:href="#rsn2e"/></g><g clip-path="url(#rsn2z)" transform="translate(-202 -1756)"/><g transform="translate(-202 -1756)"/><g opacity=".4" transform="translate(-202 -1756)"><use xlink:href="#rsn2A"/></g><g opacity=".4" transform="translate(-202 -1756)"><use xlink:href="#rsn2B"/></g><g opacity=".4" transform="translate(-202 -1756)"><use xlink:href="#rsn2C"/></g><g transform="translate(-202 -1756)"><use fill="#8fb9ec" xlink:href="#rsn2D"/></g><g opacity=".1" transform="translate(-202 -1756)"><use xlink:href="#rsn2E"/></g><g opacity=".1" transform="translate(-202 -1756)"><use xlink:href="#rsn2F"/></g><g opacity=".1" transform="translate(-202 -1756)"><use xlink:href="#rsn2G"/></g><g opacity=".1" transform="translate(-202 -1756)"><use xlink:href="#rsn2H"/></g><g opacity=".1" transform="translate(-202 -1756)"><use xlink:href="#rsn2I"/></g><g opacity=".1" transform="translate(-202 -1756)"><use xlink:href="#rsn2J"/></g><g opacity=".1" transform="translate(-202 -1756)"><use xlink:href="#rsn2K"/></g><g opacity=".1" transform="translate(-202 -1756)"><use xlink:href="#rsn2L"/></g><g opacity=".1" transform="translate(-202 -1756)"><use xlink:href="#rsn2M"/></g><g opacity=".1" transform="translate(-202 -1756)"><use xlink:href="#rsn2N"/></g><g opacity=".9" transform="translate(-202 -1756)"><use fill="#2968b7" xlink:href="#rsn2O"/></g><g opacity=".9" transform="translate(-202 -1756)"><use fill="#2968b7" xlink:href="#rsn2P"/></g><g opacity=".9" transform="translate(-202 -1756)"><use fill="#2968b7" xlink:href="#rsn2Q"/></g><g opacity=".9" transform="translate(-202 -1756)"><use fill="#2968b7" xlink:href="#rsn2R"/></g><g opacity=".9" transform="translate(-202 -1756)"><use fill="#2968b7" xlink:href="#rsn2S"/></g><g transform="translate(-202 -1756)"/></g></svg>